# xmcd CD database file
#
# Track frame offsets:
#	150
#	22185
#	40162
#	61507
#	80197
#	101307
#	125237
#	145080
#	165462
#	185087
#
# Disc length: 2710 seconds
#
# Revision: 1
# Processed by: cddbd v1.5.2PL0 Copyright (c) Steve Scherf et al.
# Submitted via: CDex 1.70beta2
#
DISCID=860a940a
DTITLE=Sarao - Que Es El Amor
DYEAR=1997
DGENRE=Salsa
TTITLE0=Que Es El Amor
TTITLE1=Como Pa Mi
TTITLE2=Pensamiento
TTITLE3=Como Asi Morena
TTITLE4=Como Tu Eres
TTITLE5=Si Te Vas
TTITLE6=Gracias Amor
TTITLE7=No Improvises
TTITLE8=Porque
TTITLE9=La Contra
EXTD=YEAR: 1997
EXTT0=
EXTT1=
EXTT2=
EXTT3=
EXTT4=
EXTT5=
EXTT6=
EXTT7=
EXTT8=
EXTT9=
PLAYORDER=
